<svg width="12" height="13" viewBox="0 0 12 13" fill="none" xmlns="http://www.w3.org/2000/svg">
<g id="bxl:instagram-alt">
<path id="Vector" d="M10.5269 5.3869C9.65958 5.38899 8.81358 5.11726 8.10837 4.61012V8.14709C8.10813 8.80218 7.90882 9.44158 7.5371 9.97979C7.16538 10.518 6.63896 10.9294 6.02823 11.1589C5.4175 11.3885 4.75157 11.4252 4.1195 11.2643C3.48742 11.1033 2.91931 10.7523 2.49115 10.2583C2.06298 9.76418 1.79516 9.15056 1.7235 8.49945C1.65184 7.84833 1.77975 7.19075 2.09014 6.61464C2.40052 6.03853 2.87858 5.57134 3.46039 5.27556C4.0422 4.97977 4.70003 4.86948 5.34592 4.95943V6.7384C5.05036 6.645 4.73299 6.64781 4.43911 6.74644C4.14524 6.84506 3.8899 7.03445 3.70955 7.28756C3.52921 7.54067 3.43309 7.84456 3.43492 8.15582C3.43674 8.46709 3.53642 8.76982 3.71972 9.02077C3.90301 9.27173 4.16056 9.45809 4.45557 9.55323C4.75058 9.64837 5.06797 9.64742 5.36241 9.55053C5.65686 9.45364 5.9133 9.26576 6.09512 9.01372C6.27693 8.76168 6.37483 8.45836 6.37482 8.14709V1.23267H8.10837C8.10716 1.37974 8.11943 1.52661 8.14501 1.67142C8.20524 1.9947 8.3305 2.30223 8.5131 2.5752C8.6957 2.84818 8.93181 3.08086 9.207 3.25902C9.5985 3.51909 10.0575 3.6577 10.5269 3.6576V5.3869Z" fill="#FCD338"/>
</g>
</svg>
