<svg width="13" height="12" viewBox="0 0 13 12" fill="none" xmlns="http://www.w3.org/2000/svg">
<g id="bxl:instagram-alt">
<path id="Vector" d="M10.6207 4.25389C10.6159 3.89064 10.5479 3.53101 10.4198 3.19107C10.3087 2.90434 10.139 2.64393 9.92154 2.42649C9.7041 2.20905 9.44369 2.03936 9.15696 1.92825C8.82139 1.80229 8.46689 1.73418 8.10853 1.72682C7.64715 1.70619 7.50086 1.70044 6.32965 1.70044C5.15845 1.70044 5.00833 1.70044 4.5503 1.72682C4.19211 1.73423 3.83776 1.80234 3.50235 1.92825C3.21557 2.03928 2.95512 2.20894 2.73767 2.42639C2.52022 2.64384 2.35056 2.90429 2.23953 3.19107C2.11332 3.52638 2.04535 3.8808 2.03858 4.23902C2.01795 4.70088 2.01172 4.84717 2.01172 6.01838C2.01172 7.18958 2.01172 7.33922 2.03858 7.79773C2.04577 8.15648 2.1134 8.51043 2.23953 8.84664C2.35074 9.13333 2.52054 9.39367 2.73806 9.61103C2.95558 9.82839 3.21605 9.99798 3.50283 10.109C3.83733 10.24 4.19173 10.313 4.55078 10.3248C5.01264 10.3454 5.15893 10.3517 6.33013 10.3517C7.50134 10.3517 7.65146 10.3517 8.10949 10.3248C8.46783 10.3177 8.82236 10.2498 9.15792 10.1238C9.44458 10.0126 9.70492 9.84288 9.92234 9.62545C10.1398 9.40803 10.3095 9.14769 10.4207 8.86103C10.5469 8.5253 10.6145 8.17135 10.6217 7.81212C10.6423 7.35073 10.6485 7.20445 10.6485 6.03276C10.6476 4.86155 10.6476 4.71287 10.6207 4.25389ZM6.32678 8.23322C5.10185 8.23322 4.10954 7.2409 4.10954 6.01598C4.10954 4.79105 5.10185 3.79874 6.32678 3.79874C6.91483 3.79874 7.47879 4.03234 7.8946 4.44815C8.31042 4.86396 8.54402 5.42793 8.54402 6.01598C8.54402 6.60403 8.31042 7.16799 7.8946 7.5838C7.47879 7.99962 6.91483 8.23322 6.32678 8.23322ZM8.63227 4.23374C8.56435 4.23381 8.49709 4.22048 8.43434 4.19452C8.37158 4.16856 8.31456 4.13047 8.26654 4.08245C8.21851 4.03443 8.18043 3.97741 8.15447 3.91465C8.12851 3.8519 8.11518 3.78464 8.11525 3.71672C8.11525 3.64886 8.12861 3.58166 8.15458 3.51896C8.18055 3.45626 8.21862 3.39929 8.26661 3.3513C8.3146 3.30332 8.37156 3.26525 8.43426 3.23928C8.49696 3.21331 8.56416 3.19994 8.63203 3.19994C8.69989 3.19994 8.76709 3.21331 8.82979 3.23928C8.89249 3.26525 8.94946 3.30332 8.99745 3.3513C9.04543 3.39929 9.0835 3.45626 9.10947 3.51896C9.13544 3.58166 9.14881 3.64886 9.14881 3.71672C9.14881 4.00257 8.91763 4.23374 8.63227 4.23374Z" fill="#FCD338"/>
<path id="Vector_2" d="M6.3265 7.45623C7.12194 7.45623 7.76677 6.81139 7.76677 6.01595C7.76677 5.22052 7.12194 4.57568 6.3265 4.57568C5.53106 4.57568 4.88623 5.22052 4.88623 6.01595C4.88623 6.81139 5.53106 7.45623 6.3265 7.45623Z" fill="#FCD338"/>
</g>
</svg>
