<svg width="23" height="23" viewBox="0 0 23 23" fill="none" xmlns="http://www.w3.org/2000/svg">
<g id="Group">
<path id="Vector" d="M5.16842 0.635986C5.35463 0.635986 5.5332 0.709144 5.66487 0.839365C5.79653 0.969586 5.8705 1.1462 5.8705 1.33036V2.02474H17.1037V1.33036C17.1037 1.1462 17.1777 0.969586 17.3093 0.839365C17.441 0.709144 17.6196 0.635986 17.8058 0.635986C17.992 0.635986 18.1705 0.709144 18.3022 0.839365C18.4339 0.969586 18.5078 1.1462 18.5078 1.33036V2.02474H19.912C20.6568 2.02474 21.3711 2.31737 21.8977 2.83825C22.4244 3.35914 22.7203 4.06561 22.7203 4.80225V20.0786C22.7203 20.8152 22.4244 21.5217 21.8977 22.0425C21.3711 22.5634 20.6568 22.8561 19.912 22.8561H3.0622C2.3174 22.8561 1.60309 22.5634 1.07644 22.0425C0.54978 21.5217 0.253906 20.8152 0.253906 20.0786V4.80225C0.253906 4.06561 0.54978 3.35914 1.07644 2.83825C1.60309 2.31737 2.3174 2.02474 3.0622 2.02474H4.46635V1.33036C4.46635 1.1462 4.54032 0.969586 4.67198 0.839365C4.80365 0.709144 4.98222 0.635986 5.16842 0.635986ZM3.0622 3.4135C2.6898 3.4135 2.33265 3.55981 2.06932 3.82025C1.80599 4.08069 1.65805 4.43393 1.65805 4.80225V6.19101H21.3161V4.80225C21.3161 4.43393 21.1682 4.08069 20.9049 3.82025C20.6415 3.55981 20.2844 3.4135 19.912 3.4135H3.0622ZM21.3161 7.57976H1.65805V20.0786C1.65805 20.4469 1.80599 20.8001 2.06932 21.0606C2.33265 21.321 2.6898 21.4673 3.0622 21.4673H19.912C20.2844 21.4673 20.6415 21.321 20.9049 21.0606C21.1682 20.8001 21.3161 20.4469 21.3161 20.0786V7.57976Z" fill="#EB382A"/>
<rect id="Rectangle 498" x="1.5874" y="6.27808" width="19.8681" height="15.2864" fill="#EB382A"/>
<path id="Vector_2" d="M15.6995 11.0516C15.6995 10.8674 15.7735 10.6908 15.9051 10.5606C16.0368 10.4303 16.2154 10.3572 16.4016 10.3572H17.8057C17.9919 10.3572 18.1705 10.4303 18.3022 10.5606C18.4338 10.6908 18.5078 10.8674 18.5078 11.0516V12.4403C18.5078 12.6245 18.4338 12.8011 18.3022 12.9313C18.1705 13.0615 17.9919 13.1347 17.8057 13.1347H16.4016C16.2154 13.1347 16.0368 13.0615 15.9051 12.9313C15.7735 12.8011 15.6995 12.6245 15.6995 12.4403V11.0516ZM11.487 11.0516C11.487 10.8674 11.561 10.6908 11.6927 10.5606C11.8243 10.4303 12.0029 10.3572 12.1891 10.3572H13.5933C13.7795 10.3572 13.958 10.4303 14.0897 10.5606C14.2214 10.6908 14.2953 10.8674 14.2953 11.0516V12.4403C14.2953 12.6245 14.2214 12.8011 14.0897 12.9313C13.958 13.0615 13.7795 13.1347 13.5933 13.1347H12.1891C12.0029 13.1347 11.8243 13.0615 11.6927 12.9313C11.561 12.8011 11.487 12.6245 11.487 12.4403V11.0516ZM8.67875 15.2178C8.67875 15.0337 8.75272 14.857 8.88439 14.7268C9.01605 14.5966 9.19463 14.5234 9.38083 14.5234H10.785C10.9712 14.5234 11.1498 14.5966 11.2814 14.7268C11.4131 14.857 11.487 15.0337 11.487 15.2178V16.6066C11.487 16.7907 11.4131 16.9674 11.2814 17.0976C11.1498 17.2278 10.9712 17.301 10.785 17.301H9.38083C9.19463 17.301 9.01605 17.2278 8.88439 17.0976C8.75272 16.9674 8.67875 16.7907 8.67875 16.6066V15.2178ZM4.46631 15.2178C4.46631 15.0337 4.54028 14.857 4.67194 14.7268C4.80361 14.5966 4.98218 14.5234 5.16838 14.5234H6.57253C6.75873 14.5234 6.93731 14.5966 7.06897 14.7268C7.20064 14.857 7.2746 15.0337 7.2746 15.2178V16.6066C7.2746 16.7907 7.20064 16.9674 7.06897 17.0976C6.93731 17.2278 6.75873 17.301 6.57253 17.301H5.16838C4.98218 17.301 4.80361 17.2278 4.67194 17.0976C4.54028 16.9674 4.46631 16.7907 4.46631 16.6066V15.2178Z" fill="#171717"/>
</g>
</svg>
