<svg width="23" height="23" viewBox="0 0 23 23" fill="none" xmlns="http://www.w3.org/2000/svg">
<path id="Vector" d="M20.8789 2.46826H18.0664V1.62451C18.0664 1.40074 17.9676 1.18612 17.7918 1.02789C17.616 0.869657 17.3775 0.780762 17.1289 0.780762C16.8803 0.780762 16.6418 0.869657 16.466 1.02789C16.2902 1.18612 16.1914 1.40074 16.1914 1.62451V2.46826H6.81641V1.62451C6.81641 1.40074 6.71763 1.18612 6.54182 1.02789C6.366 0.869657 6.12755 0.780762 5.87891 0.780762C5.63027 0.780762 5.39181 0.869657 5.21599 1.02789C5.04018 1.18612 4.94141 1.40074 4.94141 1.62451V2.46826H2.12891C1.63163 2.46826 1.15471 2.64605 0.803081 2.96252C0.45145 3.27899 0.253906 3.70821 0.253906 4.15576V21.0308C0.253906 21.4783 0.45145 21.9075 0.803081 22.224C1.15471 22.5405 1.63163 22.7183 2.12891 22.7183H20.8789C21.3762 22.7183 21.8531 22.5405 22.2047 22.224C22.5564 21.9075 22.7539 21.4783 22.7539 21.0308V4.15576C22.7539 3.70821 22.5564 3.27899 22.2047 2.96252C21.8531 2.64605 21.3762 2.46826 20.8789 2.46826ZM9.62891 18.4995C9.62891 18.7233 9.53013 18.9379 9.35432 19.0961C9.1785 19.2544 8.94005 19.3433 8.69141 19.3433C8.44277 19.3433 8.20431 19.2544 8.02849 19.0961C7.85268 18.9379 7.75391 18.7233 7.75391 18.4995V13.1143L7.23594 13.3484C7.0134 13.4486 6.75579 13.465 6.51975 13.3942C6.28372 13.3234 6.08861 13.1711 5.97734 12.9708C5.86608 12.7706 5.84777 12.5387 5.92645 12.3263C6.00512 12.1138 6.17434 11.9382 6.39687 11.8381L8.27187 10.9944C8.41486 10.93 8.57376 10.8995 8.73349 10.906C8.89321 10.9125 9.04845 10.9556 9.18444 11.0313C9.32043 11.1069 9.43265 11.2127 9.51045 11.3384C9.58824 11.4641 9.62902 11.6056 9.62891 11.7495V18.4995ZM16.1914 17.6558C16.44 17.6558 16.6785 17.7447 16.8543 17.9029C17.0301 18.0611 17.1289 18.2757 17.1289 18.4995C17.1289 18.7233 17.0301 18.9379 16.8543 19.0961C16.6785 19.2544 16.44 19.3433 16.1914 19.3433H12.4414C12.2673 19.3433 12.0966 19.2996 11.9485 19.2172C11.8004 19.1349 11.6807 19.017 11.6029 18.8768C11.525 18.7367 11.4921 18.5798 11.5077 18.4237C11.5233 18.2677 11.5869 18.1186 11.6914 17.9933L15.0641 13.9464C15.1408 13.8545 15.1958 13.7495 15.2258 13.6377C15.2558 13.526 15.2601 13.4099 15.2384 13.2966C15.2167 13.1833 15.1696 13.0752 15.0998 12.9789C15.0301 12.8826 14.9392 12.8001 14.8327 12.7366C14.7263 12.673 14.6066 12.6297 14.4809 12.6093C14.3552 12.5889 14.2262 12.5918 14.1018 12.6179C13.9774 12.644 13.8602 12.6927 13.7575 12.761C13.6547 12.8293 13.5686 12.9158 13.5043 13.0151C13.4446 13.1142 13.3634 13.2014 13.2656 13.2717C13.1678 13.342 13.0553 13.394 12.9348 13.4246C12.8143 13.4552 12.6882 13.4637 12.564 13.4497C12.4398 13.4357 12.3199 13.3995 12.2115 13.3431C12.1031 13.2868 12.0083 13.2114 11.9328 13.1216C11.8573 13.0317 11.8025 12.9292 11.7717 12.82C11.7409 12.7108 11.7348 12.5971 11.7536 12.4857C11.7724 12.3743 11.8158 12.2674 11.8813 12.1714C12.1909 11.6891 12.6688 11.3122 13.2406 11.0991C13.8125 10.886 14.4465 10.8487 15.0444 10.9929C15.6423 11.1371 16.1706 11.4547 16.5474 11.8966C16.9243 12.3385 17.1287 12.88 17.1289 13.437C17.1309 13.9873 16.9316 14.5229 16.5617 14.961L14.3164 17.6558H16.1914ZM2.12891 7.53076V4.15576H4.94141V4.99951C4.94141 5.22329 5.04018 5.4379 5.21599 5.59613C5.39181 5.75437 5.63027 5.84326 5.87891 5.84326C6.12755 5.84326 6.366 5.75437 6.54182 5.59613C6.71763 5.4379 6.81641 5.22329 6.81641 4.99951V4.15576H16.1914V4.99951C16.1914 5.22329 16.2902 5.4379 16.466 5.59613C16.6418 5.75437 16.8803 5.84326 17.1289 5.84326C17.3775 5.84326 17.616 5.75437 17.7918 5.59613C17.9676 5.4379 18.0664 5.22329 18.0664 4.99951V4.15576H20.8789V7.53076H2.12891Z" fill="#EB382A"/>
</svg>
