<svg width="23" height="23" viewBox="0 0 23 23" fill="none" xmlns="http://www.w3.org/2000/svg">
<path id="Vector" d="M20.7158 2.46826H17.9033V1.62451C17.9033 1.40074 17.8045 1.18612 17.6287 1.02789C17.4529 0.869657 17.2145 0.780762 16.9658 0.780762C16.7172 0.780762 16.4787 0.869657 16.3029 1.02789C16.1271 1.18612 16.0283 1.40074 16.0283 1.62451V2.46826H6.65332V1.62451C6.65332 1.40074 6.55455 1.18612 6.37873 1.02789C6.20292 0.869657 5.96446 0.780762 5.71582 0.780762C5.46718 0.780762 5.22872 0.869657 5.05291 1.02789C4.87709 1.18612 4.77832 1.40074 4.77832 1.62451V2.46826H1.96582C1.46854 2.46826 0.991626 2.64605 0.639995 2.96252C0.288364 3.27899 0.0908203 3.70821 0.0908203 4.15576V21.0308C0.0908203 21.4783 0.288364 21.9075 0.639995 22.224C0.991626 22.5405 1.46854 22.7183 1.96582 22.7183H20.7158C21.2131 22.7183 21.69 22.5405 22.0416 22.224C22.3933 21.9075 22.5908 21.4783 22.5908 21.0308V4.15576C22.5908 3.70821 22.3933 3.27899 22.0416 2.96252C21.69 2.64605 21.2131 2.46826 20.7158 2.46826ZM9.46582 18.4995C9.46582 18.7233 9.36705 18.9379 9.19123 19.0961C9.01542 19.2544 8.77696 19.3433 8.52832 19.3433C8.27968 19.3433 8.04122 19.2544 7.86541 19.0961C7.68959 18.9379 7.59082 18.7233 7.59082 18.4995V13.1143L7.07285 13.3484C6.85032 13.4486 6.5927 13.465 6.35667 13.3942C6.12063 13.3234 5.92552 13.1711 5.81426 12.9708C5.70299 12.7706 5.68468 12.5387 5.76336 12.3263C5.84204 12.1138 6.01126 11.9382 6.23379 11.8381L8.10879 10.9944C8.25177 10.93 8.41068 10.8995 8.5704 10.906C8.73013 10.9125 8.88536 10.9556 9.02135 11.0313C9.15734 11.1069 9.26957 11.2127 9.34736 11.3384C9.42516 11.4641 9.46593 11.6056 9.46582 11.7495V18.4995ZM16.0283 17.6558C16.277 17.6558 16.5154 17.7447 16.6912 17.9029C16.867 18.0611 16.9658 18.2757 16.9658 18.4995C16.9658 18.7233 16.867 18.9379 16.6912 19.0961C16.5154 19.2544 16.277 19.3433 16.0283 19.3433H12.2783C12.1042 19.3433 11.9335 19.2996 11.7854 19.2172C11.6373 19.1349 11.5177 19.017 11.4398 18.8768C11.3619 18.7367 11.329 18.5798 11.3446 18.4237C11.3602 18.2677 11.4239 18.1186 11.5283 17.9933L14.901 13.9464C14.9777 13.8545 15.0327 13.7495 15.0627 13.6377C15.0927 13.526 15.097 13.4099 15.0753 13.2966C15.0537 13.1833 15.0065 13.0752 14.9367 12.9789C14.867 12.8826 14.7761 12.8001 14.6697 12.7366C14.5632 12.673 14.4435 12.6297 14.3178 12.6093C14.1921 12.5889 14.0631 12.5918 13.9387 12.6179C13.8143 12.644 13.6971 12.6927 13.5944 12.761C13.4916 12.8293 13.4055 12.9158 13.3412 13.0151C13.2815 13.1142 13.2003 13.2014 13.1025 13.2717C13.0047 13.342 12.8922 13.394 12.7717 13.4246C12.6512 13.4552 12.5251 13.4637 12.4009 13.4497C12.2767 13.4357 12.1568 13.3995 12.0484 13.3431C11.94 13.2868 11.8453 13.2114 11.7697 13.1216C11.6942 13.0317 11.6394 12.9292 11.6086 12.82C11.5778 12.7108 11.5717 12.5971 11.5905 12.4857C11.6093 12.3743 11.6527 12.2674 11.7182 12.1714C12.0278 11.6891 12.5057 11.3122 13.0776 11.0991C13.6494 10.886 14.2835 10.8487 14.8813 10.9929C15.4792 11.1371 16.0075 11.4547 16.3844 11.8966C16.7612 12.3385 16.9656 12.88 16.9658 13.437C16.9678 13.9873 16.7685 14.5229 16.3986 14.961L14.1533 17.6558H16.0283ZM1.96582 7.53076V4.15576H4.77832V4.99951C4.77832 5.22329 4.87709 5.4379 5.05291 5.59613C5.22872 5.75437 5.46718 5.84326 5.71582 5.84326C5.96446 5.84326 6.20292 5.75437 6.37873 5.59613C6.55455 5.4379 6.65332 5.22329 6.65332 4.99951V4.15576H16.0283V4.99951C16.0283 5.22329 16.1271 5.4379 16.3029 5.59613C16.4787 5.75437 16.7172 5.84326 16.9658 5.84326C17.2145 5.84326 17.4529 5.75437 17.6287 5.59613C17.8045 5.4379 17.9033 5.22329 17.9033 4.99951V4.15576H20.7158V7.53076H1.96582Z" fill="#FCD338"/>
</svg>
