<svg width="23" height="23" viewBox="0 0 23 23" fill="none" xmlns="http://www.w3.org/2000/svg">
<g id="Group">
<path id="Vector" d="M5.27438 0.127563C5.46058 0.127563 5.63916 0.200721 5.77082 0.330942C5.90249 0.461163 5.97646 0.637781 5.97646 0.821941V1.51632H17.2096V0.821941C17.2096 0.637781 17.2836 0.461163 17.4153 0.330942C17.5469 0.200721 17.7255 0.127563 17.9117 0.127563C18.0979 0.127563 18.2765 0.200721 18.4082 0.330942C18.5398 0.461163 18.6138 0.637781 18.6138 0.821941V1.51632H20.0179C20.7627 1.51632 21.477 1.80895 22.0037 2.32983C22.5304 2.85072 22.8262 3.55719 22.8262 4.29383V19.5701C22.8262 20.3068 22.5304 21.0132 22.0037 21.5341C21.477 22.055 20.7627 22.3476 20.0179 22.3476H3.16816C2.42335 22.3476 1.70905 22.055 1.18239 21.5341C0.655737 21.0132 0.359863 20.3068 0.359863 19.5701V4.29383C0.359863 3.55719 0.655737 2.85072 1.18239 2.32983C1.70905 1.80895 2.42335 1.51632 3.16816 1.51632H4.57231V0.821941C4.57231 0.637781 4.64628 0.461163 4.77794 0.330942C4.90961 0.200721 5.08818 0.127563 5.27438 0.127563ZM3.16816 2.90507C2.79576 2.90507 2.43861 3.05139 2.17528 3.31183C1.91195 3.57227 1.76401 3.92551 1.76401 4.29383V5.68258H21.4221V4.29383C21.4221 3.92551 21.2741 3.57227 21.0108 3.31183C20.7475 3.05139 20.3903 2.90507 20.0179 2.90507H3.16816ZM21.4221 7.07134H1.76401V19.5701C1.76401 19.9385 1.91195 20.2917 2.17528 20.5521C2.43861 20.8126 2.79576 20.9589 3.16816 20.9589H20.0179C20.3903 20.9589 20.7475 20.8126 21.0108 20.5521C21.2741 20.2917 21.4221 19.9385 21.4221 19.5701V7.07134Z" fill="#FCD338"/>
<rect id="Rectangle 498" x="1.69336" y="5.76965" width="19.8681" height="15.2864" fill="#FCD338"/>
<path id="Vector_2" d="M15.8055 10.5433C15.8055 10.3591 15.8794 10.1825 16.0111 10.0523C16.1427 9.92203 16.3213 9.84888 16.5075 9.84888H17.9117C18.0979 9.84888 18.2765 9.92203 18.4081 10.0523C18.5398 10.1825 18.6137 10.3591 18.6137 10.5433V11.932C18.6137 12.1162 18.5398 12.2928 18.4081 12.423C18.2765 12.5532 18.0979 12.6264 17.9117 12.6264H16.5075C16.3213 12.6264 16.1427 12.5532 16.0111 12.423C15.8794 12.2928 15.8055 12.1162 15.8055 11.932V10.5433ZM11.593 10.5433C11.593 10.3591 11.667 10.1825 11.7986 10.0523C11.9303 9.92203 12.1089 9.84888 12.2951 9.84888H13.6992C13.8854 9.84888 14.064 9.92203 14.1957 10.0523C14.3273 10.1825 14.4013 10.3591 14.4013 10.5433V11.932C14.4013 12.1162 14.3273 12.2928 14.1957 12.423C14.064 12.5532 13.8854 12.6264 13.6992 12.6264H12.2951C12.1089 12.6264 11.9303 12.5532 11.7986 12.423C11.667 12.2928 11.593 12.1162 11.593 11.932V10.5433ZM8.78471 14.7095C8.78471 14.5254 8.85868 14.3487 8.99034 14.2185C9.12201 14.0883 9.30058 14.0151 9.48678 14.0151H10.8909C11.0771 14.0151 11.2557 14.0883 11.3874 14.2185C11.519 14.3487 11.593 14.5254 11.593 14.7095V16.0983C11.593 16.2824 11.519 16.4591 11.3874 16.5893C11.2557 16.7195 11.0771 16.7927 10.8909 16.7927H9.48678C9.30058 16.7927 9.12201 16.7195 8.99034 16.5893C8.85868 16.4591 8.78471 16.2824 8.78471 16.0983V14.7095ZM4.57227 14.7095C4.57227 14.5254 4.64623 14.3487 4.7779 14.2185C4.90956 14.0883 5.08814 14.0151 5.27434 14.0151H6.67849C6.86469 14.0151 7.04326 14.0883 7.17493 14.2185C7.30659 14.3487 7.38056 14.5254 7.38056 14.7095V16.0983C7.38056 16.2824 7.30659 16.4591 7.17493 16.5893C7.04326 16.7195 6.86469 16.7927 6.67849 16.7927H5.27434C5.08814 16.7927 4.90956 16.7195 4.7779 16.5893C4.64623 16.4591 4.57227 16.2824 4.57227 16.0983V14.7095Z" fill="#000"/>
</g>
</svg>
