<svg width="24" height="22" viewBox="0 0 24 22" fill="none" xmlns="http://www.w3.org/2000/svg">
<g id="fa:group" clip-path="url(#clip0_12_4997)">
<path id="Vector" d="M7.35755 11.4111C6.0638 11.4502 5.00564 11.9502 4.18307 12.9111H2.57786C1.923 12.9111 1.37196 12.7529 0.92474 12.4365C0.477517 12.1201 0.253906 11.6572 0.253906 11.0479C0.253906 8.29004 0.749045 6.91113 1.73932 6.91113C1.78724 6.91113 1.96094 6.99316 2.26042 7.15723C2.5599 7.32129 2.94922 7.4873 3.42839 7.65527C3.90755 7.82324 4.38273 7.90723 4.85391 7.90723C5.38898 7.90723 5.92005 7.81738 6.44714 7.6377C6.4072 7.92676 6.38724 8.18457 6.38724 8.41113C6.38724 9.49707 6.71068 10.4971 7.35755 11.4111ZM20.1872 18.876C20.1872 19.8135 19.8957 20.5537 19.3128 21.0967C18.7298 21.6396 17.9551 21.9111 16.9888 21.9111H6.51901C5.55269 21.9111 4.77804 21.6396 4.19505 21.0967C3.61207 20.5537 3.32057 19.8135 3.32057 18.876C3.32057 18.4619 3.33455 18.0576 3.3625 17.6631C3.39045 17.2686 3.44635 16.8428 3.53021 16.3857C3.61406 15.9287 3.71988 15.5049 3.84766 15.1143C3.97543 14.7236 4.14714 14.3428 4.36276 13.9717C4.57839 13.6006 4.82595 13.2842 5.10547 13.0225C5.38498 12.7607 5.72639 12.5518 6.12969 12.3955C6.53299 12.2393 6.97821 12.1611 7.46536 12.1611C7.54523 12.1611 7.71693 12.2451 7.98047 12.4131C8.24401 12.5811 8.5355 12.7686 8.85495 12.9756C9.17439 13.1826 9.60165 13.3701 10.1367 13.5381C10.6718 13.7061 11.2109 13.79 11.7539 13.79C12.297 13.79 12.836 13.7061 13.3711 13.5381C13.9062 13.3701 14.3334 13.1826 14.6529 12.9756C14.9723 12.7686 15.2638 12.5811 15.5273 12.4131C15.7909 12.2451 15.9626 12.1611 16.0424 12.1611C16.5296 12.1611 16.9748 12.2393 17.3781 12.3955C17.7814 12.5518 18.1228 12.7607 18.4023 13.0225C18.6819 13.2842 18.9294 13.6006 19.1451 13.9717C19.3607 14.3428 19.5324 14.7236 19.6602 15.1143C19.7879 15.5049 19.8937 15.9287 19.9776 16.3857C20.0615 16.8428 20.1174 17.2686 20.1453 17.6631C20.1733 18.0576 20.1872 18.4619 20.1872 18.876ZM7.92057 3.91113C7.92057 4.73926 7.62109 5.44629 7.02214 6.03223C6.42318 6.61816 5.70043 6.91113 4.85391 6.91113C4.00738 6.91113 3.28464 6.61816 2.68568 6.03223C2.08672 5.44629 1.78724 4.73926 1.78724 3.91113C1.78724 3.08301 2.08672 2.37598 2.68568 1.79004C3.28464 1.2041 4.00738 0.911133 4.85391 0.911133C5.70043 0.911133 6.42318 1.2041 7.02214 1.79004C7.62109 2.37598 7.92057 3.08301 7.92057 3.91113ZM16.3539 8.41113C16.3539 9.65332 15.9047 10.7139 15.0062 11.5928C14.1078 12.4717 13.0237 12.9111 11.7539 12.9111C10.4841 12.9111 9.4 12.4717 8.50156 11.5928C7.60312 10.7139 7.15391 9.65332 7.15391 8.41113C7.15391 7.16895 7.60312 6.1084 8.50156 5.22949C9.4 4.35059 10.4841 3.91113 11.7539 3.91113C13.0237 3.91113 14.1078 4.35059 15.0062 5.22949C15.9047 6.1084 16.3539 7.16895 16.3539 8.41113ZM23.2539 11.0479C23.2539 11.6572 23.0303 12.1201 22.5831 12.4365C22.1359 12.7529 21.5848 12.9111 20.9299 12.9111H19.3247C18.5022 11.9502 17.444 11.4502 16.1503 11.4111C16.7971 10.4971 17.1206 9.49707 17.1206 8.41113C17.1206 8.18457 17.1006 7.92676 17.0607 7.6377C17.5878 7.81738 18.1188 7.90723 18.6539 7.90723C19.1251 7.90723 19.6003 7.82324 20.0794 7.65527C20.5586 7.4873 20.9479 7.32129 21.2474 7.15723C21.5469 6.99316 21.7206 6.91113 21.7685 6.91113C22.7588 6.91113 23.2539 8.29004 23.2539 11.0479ZM21.7206 3.91113C21.7206 4.73926 21.4211 5.44629 20.8221 6.03223C20.2232 6.61816 19.5004 6.91113 18.6539 6.91113C17.8074 6.91113 17.0846 6.61816 16.4857 6.03223C15.8867 5.44629 15.5872 4.73926 15.5872 3.91113C15.5872 3.08301 15.8867 2.37598 16.4857 1.79004C17.0846 1.2041 17.8074 0.911133 18.6539 0.911133C19.5004 0.911133 20.2232 1.2041 20.8221 1.79004C21.4211 2.37598 21.7206 3.08301 21.7206 3.91113Z" fill="#EB382A"/>
</g>
<defs>
<clipPath id="clip0_12_4997">
<rect width="23" height="21" fill="white" transform="translate(0.253906 0.911133)"/>
</clipPath>
</defs>
</svg>
