<svg width="24" height="22" viewBox="0 0 24 22" fill="none" xmlns="http://www.w3.org/2000/svg">
<g id="fa:group" clip-path="url(#clip0_35_191)">
<path id="Vector" d="M7.19447 11.4111C5.90072 11.4502 4.84256 11.9502 4.01999 12.9111H2.41478C1.75992 12.9111 1.20888 12.7529 0.761654 12.4365C0.314431 12.1201 0.0908203 11.6572 0.0908203 11.0479C0.0908203 8.29004 0.585959 6.91113 1.57624 6.91113C1.62415 6.91113 1.79785 6.99316 2.09733 7.15723C2.39681 7.32129 2.78613 7.4873 3.2653 7.65527C3.74447 7.82324 4.21964 7.90723 4.69082 7.90723C5.22589 7.90723 5.75697 7.81738 6.28405 7.6377C6.24412 7.92676 6.22415 8.18457 6.22415 8.41113C6.22415 9.49707 6.54759 10.4971 7.19447 11.4111ZM20.0242 18.876C20.0242 19.8135 19.7327 20.5537 19.1497 21.0967C18.5667 21.6396 17.792 21.9111 16.8257 21.9111H6.35592C5.38961 21.9111 4.61495 21.6396 4.03197 21.0967C3.44898 20.5537 3.15749 19.8135 3.15749 18.876C3.15749 18.4619 3.17146 18.0576 3.19941 17.6631C3.22737 17.2686 3.28327 16.8428 3.36712 16.3857C3.45098 15.9287 3.55679 15.5049 3.68457 15.1143C3.81235 14.7236 3.98405 14.3428 4.19967 13.9717C4.4153 13.6006 4.66287 13.2842 4.94238 13.0225C5.2219 12.7607 5.5633 12.5518 5.9666 12.3955C6.3699 12.2393 6.81513 12.1611 7.30228 12.1611C7.38214 12.1611 7.55384 12.2451 7.81738 12.4131C8.08092 12.5811 8.37242 12.7686 8.69186 12.9756C9.01131 13.1826 9.43856 13.3701 9.97363 13.5381C10.5087 13.7061 11.0478 13.79 11.5908 13.79C12.1339 13.79 12.6729 13.7061 13.208 13.5381C13.7431 13.3701 14.1703 13.1826 14.4898 12.9756C14.8092 12.7686 15.1007 12.5811 15.3643 12.4131C15.6278 12.2451 15.7995 12.1611 15.8794 12.1611C16.3665 12.1611 16.8117 12.2393 17.215 12.3955C17.6183 12.5518 17.9597 12.7607 18.2393 13.0225C18.5188 13.2842 18.7663 13.6006 18.982 13.9717C19.1976 14.3428 19.3693 14.7236 19.4971 15.1143C19.6248 15.5049 19.7307 15.9287 19.8145 16.3857C19.8984 16.8428 19.9543 17.2686 19.9822 17.6631C20.0102 18.0576 20.0242 18.4619 20.0242 18.876ZM7.75749 3.91113C7.75749 4.73926 7.45801 5.44629 6.85905 6.03223C6.26009 6.61816 5.53735 6.91113 4.69082 6.91113C3.84429 6.91113 3.12155 6.61816 2.52259 6.03223C1.92363 5.44629 1.62415 4.73926 1.62415 3.91113C1.62415 3.08301 1.92363 2.37598 2.52259 1.79004C3.12155 1.2041 3.84429 0.911133 4.69082 0.911133C5.53735 0.911133 6.26009 1.2041 6.85905 1.79004C7.45801 2.37598 7.75749 3.08301 7.75749 3.91113ZM16.1908 8.41113C16.1908 9.65332 15.7416 10.7139 14.8432 11.5928C13.9447 12.4717 12.8606 12.9111 11.5908 12.9111C10.321 12.9111 9.23691 12.4717 8.33848 11.5928C7.44004 10.7139 6.99082 9.65332 6.99082 8.41113C6.99082 7.16895 7.44004 6.1084 8.33848 5.22949C9.23691 4.35059 10.321 3.91113 11.5908 3.91113C12.8606 3.91113 13.9447 4.35059 14.8432 5.22949C15.7416 6.1084 16.1908 7.16895 16.1908 8.41113ZM23.0908 11.0479C23.0908 11.6572 22.8672 12.1201 22.42 12.4365C21.9728 12.7529 21.4217 12.9111 20.7669 12.9111H19.1617C18.3391 11.9502 17.2809 11.4502 15.9872 11.4111C16.634 10.4971 16.9575 9.49707 16.9575 8.41113C16.9575 8.18457 16.9375 7.92676 16.8976 7.6377C17.4247 7.81738 17.9558 7.90723 18.4908 7.90723C18.962 7.90723 19.4372 7.82324 19.9163 7.65527C20.3955 7.4873 20.7848 7.32129 21.0843 7.15723C21.3838 6.99316 21.5575 6.91113 21.6054 6.91113C22.5957 6.91113 23.0908 8.29004 23.0908 11.0479ZM21.5575 3.91113C21.5575 4.73926 21.258 5.44629 20.659 6.03223C20.0601 6.61816 19.3373 6.91113 18.4908 6.91113C17.6443 6.91113 16.9215 6.61816 16.3226 6.03223C15.7236 5.44629 15.4242 4.73926 15.4242 3.91113C15.4242 3.08301 15.7236 2.37598 16.3226 1.79004C16.9215 1.2041 17.6443 0.911133 18.4908 0.911133C19.3373 0.911133 20.0601 1.2041 20.659 1.79004C21.258 2.37598 21.5575 3.08301 21.5575 3.91113Z" fill="#FCD338"/>
</g>
<defs>
<clipPath id="clip0_35_191">
<rect width="23" height="21" fill="white" transform="translate(0.0908203 0.911133)"/>
</clipPath>
</defs>
</svg>
