<svg width="23" height="25" viewBox="0 0 23 25" fill="none" xmlns="http://www.w3.org/2000/svg">
<g id="twemoji:flag-germany" clip-path="url(#clip0_27_57)">
<path id="Vector" d="M0.747559 18.8237C0.747559 19.531 1.0051 20.2093 1.46352 20.7094C1.92194 21.2095 2.5437 21.4904 3.192 21.4904H20.3031C20.9514 21.4904 21.5732 21.2095 22.0316 20.7094C22.49 20.2093 22.7476 19.531 22.7476 18.8237V16.1571H0.747559V18.8237Z" fill="#FFCD05"/>
<path id="Vector_2" d="M0.747559 10.1571H22.7476V16.1571H0.747559V10.1571Z" fill="#ED1F24"/>
<path id="Vector_3" d="M20.3031 4.15707H3.192C2.5437 4.15707 1.92194 4.43803 1.46352 4.93812C1.0051 5.43822 0.747559 6.1165 0.747559 6.82374L0.747559 10.1571H22.7476V6.82374C22.7476 6.1165 22.49 5.43822 22.0316 4.93812C21.5732 4.43803 20.9514 4.15707 20.3031 4.15707Z" fill="#141414"/>
</g>
<defs>
<clipPath id="clip0_27_57">
<rect width="22" height="24" fill="white" transform="translate(0.747559 0.82373)"/>
</clipPath>
</defs>
</svg>
