<svg width="15" height="15" viewBox="0 0 15 15" fill="none" xmlns="http://www.w3.org/2000/svg">
<g id="Icon Global">
<path id="Vector" d="M7.43018 14.0332C11.0182 14.0332 13.9302 11.121 13.9302 7.5332C13.9302 3.94515 11.0182 1.0332 7.43018 1.0332C3.84212 1.0332 0.930176 3.94515 0.930176 7.5332C0.930176 11.1213 3.84212 14.0332 7.43018 14.0332ZM2.4122 10.7833H4.70022C5.0122 11.8753 5.45421 12.7594 6.00028 13.3313C4.51817 12.9673 3.24422 12.0573 2.41222 10.7833H2.4122ZM2.12621 4.80316H4.59628C4.44024 5.55716 4.33632 6.3892 4.3103 7.27324H1.45016C1.50218 6.3892 1.73626 5.53116 2.12627 4.80316H2.12621ZM13.4105 7.27324H10.5503C10.5243 6.3892 10.4463 5.55716 10.2643 4.80316H12.7344C13.1243 5.53116 13.3584 6.3892 13.4104 7.27324H13.4105ZM12.7344 10.2632H10.2643C10.4203 9.50919 10.5243 8.67714 10.5503 7.79311H13.4104C13.3585 8.67714 13.1244 9.53518 12.7344 10.2632H12.7344ZM7.17038 10.7832V13.4613C6.39037 13.2792 5.68838 12.2392 5.27236 10.7832H7.17038ZM5.14232 10.2632C4.96026 9.50919 4.85633 8.67714 4.85633 7.79311H7.19637V10.2632H5.14232ZM7.69031 13.4871V10.7831H9.58833C9.17241 12.2651 8.47032 13.3051 7.69031 13.4871ZM7.69031 10.2632V7.79311H10.0303C10.0043 8.67714 9.9003 9.50919 9.74436 10.2632H7.69031ZM10.0303 7.27324H7.69031V4.80316H9.71837C9.90042 5.55716 10.0044 6.3892 10.0303 7.27324ZM7.69031 4.28301V1.57899C8.47032 1.76104 9.1723 2.80101 9.58833 4.25702H7.69031V4.28301ZM7.17038 1.57899V4.25702H5.27236C5.68827 2.80101 6.39037 1.76104 7.17038 1.57899ZM7.17038 4.80294V7.27301H4.83034C4.85635 6.38898 4.96038 5.55693 5.11633 4.80294H7.17038ZM4.31024 7.79289C4.33625 8.67692 4.41427 9.50897 4.59623 10.263H2.12627C1.73626 9.53496 1.5022 8.67692 1.45016 7.79289H4.31024ZM8.86021 13.331C9.40628 12.7589 9.84818 11.875 10.1603 10.783H12.4483C11.6163 12.0569 10.3423 12.967 8.86021 13.331ZM12.4483 4.28284H10.1602C9.84827 3.19085 9.40625 2.30679 8.86019 1.73485C10.3423 2.09884 11.6163 3.00889 12.4483 4.28284ZM6.00036 1.73485C5.4543 2.30691 5.01239 3.19085 4.7003 4.28284H2.41228C3.2443 3.00892 4.51825 2.09887 6.00033 1.73485H6.00036Z" fill="#FCD338" stroke="#FCD338" stroke-width="0.5"/>
</g>
</svg>
