<svg width="21" height="21" viewBox="0 0 21 21" fill="none" xmlns="http://www.w3.org/2000/svg">
<g id="Group 178">
<path id="Vector" d="M10.4485 0.154785C4.9285 0.154785 0.458496 4.63479 0.458496 10.1548C0.458496 15.6748 4.9285 20.1548 10.4485 20.1548C15.9785 20.1548 20.4585 15.6748 20.4585 10.1548C20.4585 4.63479 15.9785 0.154785 10.4485 0.154785ZM17.3785 6.15479H14.4285C14.1155 4.91624 13.6521 3.72068 13.0485 2.59479C14.8726 3.22279 16.4097 4.48651 17.3785 6.15479ZM10.4585 2.19479C11.2885 3.39479 11.9385 4.72479 12.3685 6.15479H8.5485C8.9785 4.72479 9.6285 3.39479 10.4585 2.19479ZM2.7185 12.1548C2.5585 11.5148 2.4585 10.8448 2.4585 10.1548C2.4585 9.46479 2.5585 8.79479 2.7185 8.15479H6.0985C6.0185 8.81479 5.9585 9.47479 5.9585 10.1548C5.9585 10.8348 6.0185 11.4948 6.0985 12.1548H2.7185ZM3.5385 14.1548H6.4885C6.8085 15.4048 7.2685 16.6048 7.8685 17.7148C6.04246 17.0902 4.50433 15.8256 3.5385 14.1548ZM6.4885 6.15479H3.5385C4.50433 4.48396 6.04246 3.21935 7.8685 2.59479C7.26492 3.72068 6.80147 4.91624 6.4885 6.15479ZM10.4585 18.1148C9.6285 16.9148 8.9785 15.5848 8.5485 14.1548H12.3685C11.9385 15.5848 11.2885 16.9148 10.4585 18.1148ZM12.7985 12.1548H8.1185C8.0285 11.4948 7.9585 10.8348 7.9585 10.1548C7.9585 9.47479 8.0285 8.80479 8.1185 8.15479H12.7985C12.8885 8.80479 12.9585 9.47479 12.9585 10.1548C12.9585 10.8348 12.8885 11.4948 12.7985 12.1548ZM13.0485 17.7148C13.6485 16.6048 14.1085 15.4048 14.4285 14.1548H17.3785C16.4097 15.8231 14.8726 17.0868 13.0485 17.7148ZM14.8185 12.1548C14.8985 11.4948 14.9585 10.8348 14.9585 10.1548C14.9585 9.47479 14.8985 8.81479 14.8185 8.15479H18.1985C18.3585 8.79479 18.4585 9.46479 18.4585 10.1548C18.4585 10.8448 18.3585 11.5148 18.1985 12.1548H14.8185Z" fill="#EB382A"/>
</g>
</svg>
