<svg width="21" height="21" viewBox="0 0 21 21" fill="none" xmlns="http://www.w3.org/2000/svg">
<g id="Group 204">
<path id="Vector" d="M10.0003 0.154785C4.48025 0.154785 0.0102539 4.63479 0.0102539 10.1548C0.0102539 15.6748 4.48025 20.1548 10.0003 20.1548C15.5303 20.1548 20.0103 15.6748 20.0103 10.1548C20.0103 4.63479 15.5303 0.154785 10.0003 0.154785ZM16.9303 6.15479H13.9803C13.6673 4.91624 13.2038 3.72068 12.6003 2.59479C14.4244 3.22279 15.9614 4.48651 16.9303 6.15479ZM10.0103 2.19479C10.8403 3.39479 11.4903 4.72479 11.9203 6.15479H8.10025C8.53025 4.72479 9.18025 3.39479 10.0103 2.19479ZM2.27025 12.1548C2.11025 11.5148 2.01025 10.8448 2.01025 10.1548C2.01025 9.46479 2.11025 8.79479 2.27025 8.15479H5.65025C5.57025 8.81479 5.51025 9.47479 5.51025 10.1548C5.51025 10.8348 5.57025 11.4948 5.65025 12.1548H2.27025ZM3.09025 14.1548H6.04025C6.36025 15.4048 6.82025 16.6048 7.42025 17.7148C5.59422 17.0902 4.05609 15.8256 3.09025 14.1548ZM6.04025 6.15479H3.09025C4.05609 4.48396 5.59422 3.21935 7.42025 2.59479C6.81668 3.72068 6.35323 4.91624 6.04025 6.15479ZM10.0103 18.1148C9.18025 16.9148 8.53025 15.5848 8.10025 14.1548H11.9203C11.4903 15.5848 10.8403 16.9148 10.0103 18.1148ZM12.3503 12.1548H7.67025C7.58025 11.4948 7.51025 10.8348 7.51025 10.1548C7.51025 9.47479 7.58025 8.80479 7.67025 8.15479H12.3503C12.4403 8.80479 12.5103 9.47479 12.5103 10.1548C12.5103 10.8348 12.4403 11.4948 12.3503 12.1548ZM12.6003 17.7148C13.2003 16.6048 13.6603 15.4048 13.9803 14.1548H16.9303C15.9614 15.8231 14.4244 17.0868 12.6003 17.7148ZM14.3703 12.1548C14.4503 11.4948 14.5103 10.8348 14.5103 10.1548C14.5103 9.47479 14.4503 8.81479 14.3703 8.15479H17.7503C17.9103 8.79479 18.0103 9.46479 18.0103 10.1548C18.0103 10.8448 17.9103 11.5148 17.7503 12.1548H14.3703Z" fill="#EB382A"/>
</g>
</svg>
