<svg width="168" height="231" viewBox="0 0 168 231" fill="none" xmlns="http://www.w3.org/2000/svg">
<path id="Vector" d="M4.67254 41.0265C29.951 7.55123 63.0666 -11.2488 99.219 23.6735C127.069 50.5747 124.815 105.39 86.2121 121.591C76.9634 125.472 65.0731 117.772 60.0086 110.129C52 98.0384 55.0279 85.9071 64.6137 75.7841C82.0301 57.3962 117.8 48.8251 138.088 68.3606C169.834 98.9332 168.541 146.119 153.23 183.946C150.18 191.48 118.093 243.211 125.793 209.886C127.189 203.838 132.093 185.913 131.084 192.041C129.41 202.202 128.042 207.836 123.079 217.136C122.094 218.981 115.573 227.895 121.53 226.769C133.726 224.461 146.058 223.098 158.215 220.509" stroke="#578DB3" stroke-width="8" stroke-linecap="round"/>
</svg>
