<svg width="23" height="23" viewBox="0 0 23 23" fill="none" xmlns="http://www.w3.org/2000/svg">
<g id="Group">
<path id="Vector" fill-rule="evenodd" clip-rule="evenodd" d="M20.7067 9.50681C20.6419 9.50369 20.5771 9.50258 20.5122 9.50348H17.8071C15.594 9.50348 13.6987 11.2599 13.6987 13.5507C13.6987 15.8415 15.594 17.5979 17.8082 17.5979H20.5111C20.5789 17.5979 20.6444 17.5979 20.7055 17.5935C21.1623 17.5643 21.593 17.3701 21.9171 17.0469C22.2413 16.7238 22.4369 16.2938 22.4675 15.8371C22.472 15.7715 22.472 15.7015 22.472 15.6371V11.4643C22.472 11.3999 22.472 11.3299 22.4675 11.2643C22.4369 10.8078 22.2415 10.378 21.9175 10.0548C21.5936 9.73172 21.1633 9.53735 20.7067 9.50792V9.50681ZM17.5704 14.6294C18.1403 14.6294 18.6036 14.1473 18.6036 13.5507C18.6036 12.9541 18.1403 12.472 17.5704 12.472C17.0005 12.472 16.5383 12.9541 16.5383 13.5507C16.5383 14.1473 16.9994 14.6294 17.5704 14.6294Z" fill="#EB382A"/>
<path id="Vector_2" fill-rule="evenodd" clip-rule="evenodd" d="M20.5111 19.2162C20.5483 19.2149 20.5854 19.2224 20.6192 19.238C20.653 19.2536 20.6826 19.277 20.7058 19.3061C20.7289 19.3353 20.7449 19.3695 20.7523 19.406C20.7598 19.4425 20.7586 19.4802 20.7489 19.5162C20.5333 20.285 20.1923 20.9404 19.6446 21.4915C18.8436 22.2991 17.8271 22.658 16.5717 22.8279C15.3518 22.9935 13.7943 22.9935 11.8257 22.9935H9.56263C7.59512 22.9935 6.03645 22.9935 4.81661 22.8279C3.56123 22.658 2.5447 22.2991 1.7437 21.4915C0.942701 20.6849 0.587194 19.6606 0.418328 18.3952C0.253906 17.1654 0.253906 15.5945 0.253906 13.6114V13.4892C0.253906 11.5062 0.253906 9.93416 0.418328 8.70544C0.587194 7.44005 0.942701 6.41797 1.74259 5.60808C2.54359 4.80153 3.56012 4.44158 4.8155 4.27271C6.03645 4.10718 7.59512 4.10718 9.56263 4.10718H11.8257C13.7932 4.10718 15.3518 4.10718 16.5717 4.27271C17.8271 4.44269 18.8436 4.80153 19.6446 5.60808C20.1923 6.16023 20.5333 6.81569 20.7489 7.58559C20.7584 7.62146 20.7595 7.65906 20.7519 7.6954C20.7443 7.73174 20.7283 7.76579 20.7052 7.79484C20.6821 7.82389 20.6525 7.84712 20.6188 7.86268C20.5851 7.87824 20.5482 7.88569 20.5111 7.88444H17.8082C14.7708 7.88444 12.0945 10.303 12.0945 13.5503C12.0945 16.7977 14.7719 19.2162 17.8093 19.2162H20.5111ZM4.26891 8.42436C4.16314 8.4248 4.05849 8.44607 3.96093 8.48695C3.86338 8.52783 3.77483 8.58753 3.70035 8.66263C3.62587 8.73773 3.56691 8.82677 3.52683 8.92466C3.48676 9.02255 3.46636 9.12737 3.4668 9.23314C3.4668 9.68086 3.82564 10.043 4.26891 10.043H8.55277C8.99715 10.043 9.35599 9.68086 9.35599 9.23314C9.35658 9.01942 9.27232 8.8142 9.12172 8.66256C8.97112 8.51092 8.76649 8.42525 8.55277 8.42436H4.26891Z" fill="#EB382A"/>
<path id="Vector_3" d="M6.67188 3.02292L8.84713 1.4198C9.41477 1.00015 10.1021 0.773682 10.808 0.773682C11.5139 0.773682 12.2012 1.00015 12.7688 1.4198L14.9563 3.0318C14.0409 2.99625 13.0188 2.99625 11.9 2.99625H9.48927C8.46496 2.99625 7.52398 2.99625 6.67188 3.02292Z" fill="#EB382A"/>
</g>
</svg>
