<svg width="23" height="23" viewBox="0 0 23 23" fill="none" xmlns="http://www.w3.org/2000/svg">
<g id="Group">
<path id="Vector" fill-rule="evenodd" clip-rule="evenodd" d="M20.5436 9.50681C20.4788 9.50369 20.414 9.50258 20.3492 9.50348H17.644C15.4309 9.50348 13.5356 11.2599 13.5356 13.5507C13.5356 15.8415 15.4309 17.5979 17.6451 17.5979H20.348C20.4158 17.5979 20.4814 17.5979 20.5425 17.5935C20.9993 17.5643 21.4299 17.3701 21.754 17.0469C22.0782 16.7238 22.2738 16.2938 22.3044 15.8371C22.3089 15.7715 22.3089 15.7015 22.3089 15.6371V11.4643C22.3089 11.3999 22.3089 11.3299 22.3044 11.2643C22.2739 10.8078 22.0784 10.378 21.7545 10.0548C21.4305 9.73172 21.0002 9.53735 20.5436 9.50792V9.50681ZM17.4073 14.6294C17.9773 14.6294 18.4405 14.1473 18.4405 13.5507C18.4405 12.9541 17.9773 12.472 17.4073 12.472C16.8374 12.472 16.3753 12.9541 16.3753 13.5507C16.3753 14.1473 16.8363 14.6294 17.4073 14.6294Z" fill="#FCD338"/>
<path id="Vector_2" fill-rule="evenodd" clip-rule="evenodd" d="M20.348 19.2162C20.3853 19.2149 20.4223 19.2224 20.4561 19.238C20.4899 19.2536 20.5196 19.277 20.5427 19.3061C20.5658 19.3353 20.5818 19.3695 20.5893 19.406C20.5967 19.4425 20.5956 19.4802 20.5858 19.5162C20.3703 20.285 20.0292 20.9404 19.4815 21.4915C18.6805 22.2991 17.664 22.658 16.4086 22.8279C15.1888 22.9935 13.6312 22.9935 11.6626 22.9935H9.39954C7.43204 22.9935 5.87336 22.9935 4.65353 22.8279C3.39814 22.658 2.38162 22.2991 1.58062 21.4915C0.779615 20.6849 0.424108 19.6606 0.255242 18.3952C0.0908203 17.1654 0.0908203 15.5945 0.0908203 13.6114V13.4892C0.0908203 11.5062 0.0908203 9.93416 0.255242 8.70544C0.424108 7.44005 0.779615 6.41797 1.57951 5.60808C2.38051 4.80153 3.39703 4.44158 4.65242 4.27271C5.87336 4.10718 7.43204 4.10718 9.39954 4.10718H11.6626C13.6301 4.10718 15.1888 4.10718 16.4086 4.27271C17.664 4.44269 18.6805 4.80153 19.4815 5.60808C20.0292 6.16023 20.3703 6.81569 20.5858 7.58559C20.5953 7.62146 20.5964 7.65906 20.5888 7.6954C20.5812 7.73174 20.5652 7.76579 20.5421 7.79484C20.519 7.82389 20.4894 7.84712 20.4557 7.86268C20.422 7.87824 20.3851 7.88569 20.348 7.88444H17.6451C14.6077 7.88444 11.9314 10.303 11.9314 13.5503C11.9314 16.7977 14.6088 19.2162 17.6462 19.2162H20.348ZM4.10583 8.42436C4.00005 8.4248 3.8954 8.44607 3.79785 8.48695C3.70029 8.52783 3.61175 8.58753 3.53726 8.66263C3.46278 8.73773 3.40382 8.82677 3.36375 8.92466C3.32367 9.02255 3.30327 9.12737 3.30371 9.23314C3.30371 9.68086 3.66255 10.043 4.10583 10.043H8.38968C8.83407 10.043 9.19291 9.68086 9.19291 9.23314C9.1935 9.01942 9.10924 8.8142 8.95864 8.66256C8.80803 8.51092 8.6034 8.42525 8.38968 8.42436H4.10583Z" fill="#FCD338"/>
<path id="Vector_3" d="M6.50879 3.02292L8.68405 1.4198C9.25168 1.00015 9.93897 0.773682 10.6449 0.773682C11.3508 0.773682 12.0381 1.00015 12.6057 1.4198L14.7932 3.0318C13.8778 2.99625 12.8557 2.99625 11.737 2.99625H9.32618C8.30188 2.99625 7.36089 2.99625 6.50879 3.02292Z" fill="#FCD338"/>
</g>
</svg>
