<svg width="156" height="162" viewBox="0 0 156 162" fill="none" xmlns="http://www.w3.org/2000/svg">
<g id="Group">
<g id="Group_2">
<path id="Vector" d="M45.4306 124.788C31.0329 122.41 11.8783 120.244 0.0712891 108.437V134.302H19.5232C21.9865 134.302 24.2374 136.001 24.7046 138.464C26.5734 149.04 35.195 155.708 49.1256 155.708C61.5272 155.708 69.5543 150.314 69.5543 140.8C69.5118 129.545 58.7666 126.954 45.4306 124.788Z" fill="#EB382A"/>
<path id="Vector_2" d="M79.7899 0.0932617H18.8861C8.48062 0.0932617 0.0712891 8.54504 0.0712891 18.908V46.0896C9.88215 34.3676 25.7239 27.6146 45.8129 27.6146C77.6663 27.6146 99.7939 46.2595 103.149 74.1207C103.616 78.0705 100.601 81.5956 96.6085 81.5956H74.7783C71.6354 81.5956 68.9172 79.3447 68.3226 76.2443C66.3265 65.9662 58.4268 60.2326 47.1295 60.2326C34.9402 60.2326 27.6352 66.2635 27.6352 74.9277C27.6352 86.6073 40.5889 88.5185 55.7087 91.1092C77.9211 95.0166 107.991 100.623 107.991 137.955C107.991 143.476 107.226 148.615 105.74 153.372C104.211 158.299 109.18 162.843 113.809 160.507C138.273 148.106 155.049 122.708 155.049 93.4027V75.3524C155.006 33.773 121.327 0.0932617 79.7899 0.0932617Z" fill="#FCD338"/>
</g>
</g>
</svg>
