<svg width="156" height="162" viewBox="0 0 156 162" fill="none" xmlns="http://www.w3.org/2000/svg">
<g id="Group">
<g id="Group_2">
<path id="Vector" d="M45.8491 124.788C31.4513 122.41 12.2968 120.244 0.489746 108.437V134.302H19.9416C22.4049 134.302 24.6559 136.001 25.1231 138.464C26.9918 149.04 35.6135 155.708 49.5441 155.708C61.9457 155.708 69.9728 150.314 69.9728 140.8C69.9303 129.545 59.1851 126.954 45.8491 124.788Z" fill="#EB382A"/>
<path id="Vector_2" d="M80.2083 0.0932617H19.3045C8.89908 0.0932617 0.489746 8.54504 0.489746 18.908V46.0896C10.3006 34.3676 26.1424 27.6146 46.2313 27.6146C78.0848 27.6146 100.212 46.2595 103.568 74.1207C104.035 78.0705 101.019 81.5956 97.027 81.5956H75.1967C72.0538 81.5956 69.3357 79.3447 68.7411 76.2443C66.7449 65.9662 58.8453 60.2326 47.5479 60.2326C35.3587 60.2326 28.0536 66.2635 28.0536 74.9277C28.0536 86.6073 41.0073 88.5185 56.1271 91.1092C78.3396 95.0166 108.409 100.623 108.409 137.955C108.409 143.476 107.645 148.615 106.158 153.372C104.629 158.299 109.598 162.843 114.228 160.507C138.691 148.106 155.467 122.708 155.467 93.4027V75.3524C155.425 33.773 121.745 0.0932617 80.2083 0.0932617Z" fill="black"/>
</g>
</g>
</svg>
