<svg width="114" height="36" viewBox="0 0 114 36" fill="none" xmlns="http://www.w3.org/2000/svg">
<g id="Group">
<g id="Group_2">
<path id="Vector" d="M10.3734 27.1375C7.24597 26.6209 3.08522 26.1504 0.520508 23.5857V29.2041H4.74583C5.28091 29.2041 5.76987 29.5731 5.87135 30.1082C6.27728 32.4054 8.15008 33.8538 11.1761 33.8538C13.8699 33.8538 15.6136 32.6821 15.6136 30.6156C15.6044 28.1708 13.2703 27.6081 10.3734 27.1375Z" fill="#EB382A"/>
<path id="Vector_2" d="M17.8369 0.0510254H4.60745C2.34717 0.0510254 0.520508 1.88692 0.520508 4.13796V10.0423C2.65162 7.49608 6.09277 6.02921 10.4565 6.02921C17.3757 6.02921 22.1822 10.0792 22.911 16.1312C23.0125 16.9892 22.3575 17.7549 21.4903 17.7549H16.7483C16.0656 17.7549 15.4752 17.266 15.346 16.5925C14.9124 14.3599 13.1965 13.1145 10.7425 13.1145C8.09472 13.1145 6.50792 14.4245 6.50792 16.3065C6.50792 18.8436 9.32172 19.2587 12.606 19.8215C17.431 20.6702 23.9627 21.888 23.9627 29.9973C23.9627 31.1966 23.7967 32.3129 23.4738 33.3462C23.1417 34.4164 24.2211 35.4035 25.2267 34.8961C30.5406 32.2022 34.1847 26.6853 34.1847 20.3197V16.3988C34.1755 7.36692 26.8596 0.0510254 17.8369 0.0510254Z" fill="black"/>
</g>
<g id="Group_3">
<g id="Group_4">
<path id="Vector_3" d="M43.9824 6.59204H48.8074C52.0825 6.59204 54.3335 8.45561 54.3335 11.4908C54.3335 14.5261 52.0825 16.3896 48.8074 16.3896H43.9824V6.59204ZM48.669 13.8157C50.0529 13.8157 51.0031 12.9854 51.0031 11.4908C51.0031 9.99628 50.0529 9.16598 48.669 9.16598H47.2852V13.8157H48.669Z" fill="black"/>
<path id="Vector_4" d="M63.448 13.8987V16.3896H55.3018V6.59204H63.2634V9.08295H58.5492V10.2269H62.6915V12.6071H58.5492V13.8987H63.448Z" fill="black"/>
<path id="Vector_5" d="M64.3984 11.9798V6.59204H67.7012V11.8783C67.7012 13.3729 68.2732 13.9356 69.1957 13.9356C70.1183 13.9356 70.6903 13.3729 70.6903 11.8783V6.59204H73.9377V11.9798C73.9377 14.9228 72.1756 16.611 69.1681 16.611C66.1605 16.611 64.3984 14.9228 64.3984 11.9798Z" fill="black"/>
<path id="Vector_6" d="M77.8033 9.15676H74.9341V6.59204H83.9752V9.15676H81.106V16.3896H77.8033V9.15676Z" fill="black"/>
<path id="Vector_7" d="M84.4824 15.6051L85.5434 13.1972C86.4659 13.7416 87.7022 14.0921 88.7723 14.0921C89.7133 14.0921 90.0455 13.8984 90.0455 13.557C90.0455 12.3208 84.63 13.3172 84.63 9.66385C84.63 7.8464 86.1523 6.36108 89.1967 6.36108C90.516 6.36108 91.8721 6.63785 92.8962 7.21906L91.8998 9.60849C90.9311 9.11954 90.027 8.87967 89.169 8.87967C88.2003 8.87967 87.8959 9.15644 87.8959 9.49779C87.8959 10.6694 93.3113 9.69152 93.3113 13.308C93.3113 15.0977 91.7891 16.6107 88.7447 16.6107C87.1117 16.6107 85.4603 16.2048 84.4824 15.6051Z" fill="black"/>
<path id="Vector_8" d="M93.6616 11.4908C93.6616 8.48327 95.968 6.37061 99.1232 6.37061C101.042 6.37061 102.555 7.07175 103.515 8.32643L101.43 10.19C100.858 9.46118 100.166 9.04603 99.2892 9.04603C97.9146 9.04603 96.9921 9.99626 96.9921 11.4908C96.9921 12.9854 97.9146 13.9356 99.2892 13.9356C100.175 13.9356 100.858 13.5112 101.43 12.7916L103.515 14.6552C102.546 15.9191 101.033 16.611 99.1232 16.611C95.968 16.611 93.6616 14.4984 93.6616 11.4908Z" fill="black"/>
<path id="Vector_9" d="M113.884 6.59204V16.3896H110.582V12.7824H107.528V16.3896H104.225V6.59204H107.528V10.0609H110.582V6.59204H113.884Z" fill="black"/>
<path id="Vector_10" d="M43.3643 29.3791L44.4252 26.9712C45.3478 27.5155 46.584 27.8661 47.6542 27.8661C48.5952 27.8661 48.9273 27.6723 48.9273 27.331C48.9273 26.0947 43.5119 27.0911 43.5119 23.4378C43.5119 21.6203 45.0341 20.135 48.0785 20.135C49.3978 20.135 50.754 20.4118 51.778 20.993L50.7816 23.3824C49.813 22.8935 48.9088 22.6536 48.0509 22.6536C47.0822 22.6536 46.7777 22.9304 46.7777 23.2717C46.7777 24.4434 52.1932 23.4655 52.1932 27.0819C52.1932 28.8717 50.6709 30.3846 47.6265 30.3846C46.0028 30.3846 44.3514 29.9787 43.3643 29.3791Z" fill="black"/>
<path id="Vector_11" d="M56.9259 26.9159L56.1878 27.7462V30.1633H52.9404V20.3657H56.1878V23.9176L59.4076 20.3657H63.0056L59.0847 24.6741L63.1993 30.1633H59.3799L56.9259 26.9159Z" fill="black"/>
<path id="Vector_12" d="M63.6973 20.3657H67V30.1633H63.6973V20.3657Z" fill="black"/>
<path id="Vector_13" d="M68.3564 20.3657H71.6592V27.5986H76.0783V30.1633H68.3564V20.3657Z" fill="black"/>
<path id="Vector_14" d="M76.9546 20.3657H80.2574V27.5986H84.6764V30.1633H76.9546V20.3657Z" fill="black"/>
</g>
</g>
</g>
</svg>
