<svg width="156" height="162" viewBox="0 0 156 162" fill="none" xmlns="http://www.w3.org/2000/svg">
<g id="Group">
<g id="Group_2">
<path id="Vector" d="M46.2675 124.788C31.8698 122.41 12.7152 120.244 0.908203 108.437V134.302H20.3601C22.8234 134.302 25.0744 136.001 25.5415 138.464C27.4103 149.04 36.032 155.708 49.9625 155.708C62.3641 155.708 70.3912 150.314 70.3912 140.8C70.3488 129.545 59.6035 126.954 46.2675 124.788Z" fill="#FCD338"/>
<path id="Vector_2" d="M80.6268 0.0932617H19.723C9.31754 0.0932617 0.908203 8.54504 0.908203 18.908V46.0896C10.7191 34.3676 26.5609 27.6146 46.6498 27.6146C78.5032 27.6146 100.631 46.2595 103.986 74.1207C104.453 78.0705 101.438 81.5956 97.4454 81.5956H75.6152C72.4723 81.5956 69.7541 79.3447 69.1595 76.2443C67.1634 65.9662 59.2638 60.2326 47.9664 60.2326C35.7771 60.2326 28.4721 66.2635 28.4721 74.9277C28.4721 86.6073 41.4258 88.5185 56.5456 91.1092C78.758 95.0166 108.828 100.623 108.828 137.955C108.828 143.476 108.063 148.615 106.577 153.372C105.048 158.299 110.017 162.843 114.646 160.507C139.11 148.106 155.886 122.708 155.886 93.4027V75.3524C155.843 33.773 122.164 0.0932617 80.6268 0.0932617Z" fill="white"/>
</g>
</g>
</svg>
